<svg width="548" height="469" viewBox="0 0 548 469" fill="none" xmlns="http://www.w3.org/2000/svg">
<path d="M274.436 63.5789L461.763 18.0613V18.0321H462.763V64.5643H533V451.747H15V63.6863H85.2373V18.0321H86.1152L274.436 63.5789ZM15.8779 450.747H273.495L85.2373 405.215V64.5643H15.8779V450.747ZM462.763 405.215L275.38 450.747H532V65.5643H462.763V405.215ZM274.878 64.5008V449.84L461.763 404.429V19.0906L274.878 64.5008ZM86.1152 404.398L273.878 449.81V64.4725L86.1152 19.0604V404.398Z" fill="black"/>
<path d="M274.436 63.5789L270.909 78.1586L274.444 79.0134L277.977 78.1548L274.436 63.5789ZM461.763 18.0613L465.304 32.6372L476.763 29.853V18.0613H461.763ZM461.763 18.0321V3.03205H446.763V18.0321H461.763ZM462.763 18.0321H477.763V3.03205H462.763V18.0321ZM462.763 64.5643H447.763V79.5643H462.763V64.5643ZM533 64.5643H548V49.5643H533V64.5643ZM533 451.747V466.747H548V451.747H533ZM15 451.747H0V466.747H15V451.747ZM15 63.6863V48.6863H0V63.6863H15ZM85.2373 63.6863V78.6863H100.237V63.6863H85.2373ZM85.2373 18.0321V3.03205H70.2373V18.0321H85.2373ZM86.1152 18.0321L89.6414 3.45241L87.9034 3.03205H86.1152V18.0321ZM15.8779 450.747H0.87793V465.747H15.8779V450.747ZM273.495 450.747V465.747L277.021 436.167L273.495 450.747ZM85.2373 405.215H70.2373V417.019L81.7111 419.794L85.2373 405.215ZM85.2373 64.5643H100.237V49.5643H85.2373V64.5643ZM15.8779 64.5643V49.5643H0.87793V64.5643H15.8779ZM462.763 405.215L466.305 419.791L477.763 417.006V405.215H462.763ZM275.38 450.747L271.838 436.171L275.38 465.747V450.747ZM532 450.747V465.747H547V450.747H532ZM532 65.5643H547V50.5643H532V65.5643ZM462.763 65.5643V50.5643H447.763V65.5643H462.763ZM274.878 64.5008L271.336 49.9249L259.878 52.7091V64.5008H274.878ZM274.878 449.84H259.878V468.921L278.42 464.416L274.878 449.84ZM461.763 404.429L465.304 419.004L476.763 416.22V404.429H461.763ZM461.763 19.0906H476.763V0.00941086L458.221 4.51477L461.763 19.0906ZM86.1152 404.398H71.1152V416.203L82.589 418.978L86.1152 404.398ZM273.878 449.81L270.352 464.39L288.878 468.871V449.81H273.878ZM273.878 64.4725H288.878V52.6679L277.404 49.8928L273.878 64.4725ZM86.1152 19.0604L89.6414 4.48073L71.1152 1.90735e-06V19.0604H86.1152ZM274.436 63.5789L277.977 78.1548L465.304 32.6372L461.763 18.0613L458.221 3.48547L270.894 49.003L274.436 63.5789ZM461.763 18.0613H476.763V18.0321H461.763H446.763V18.0613H461.763ZM461.763 18.0321V33.0321H462.763V18.0321V3.03205H461.763V18.0321ZM462.763 18.0321H447.763V64.5643H462.763H477.763V18.0321H462.763ZM462.763 64.5643V79.5643H533V64.5643V49.5643H462.763V64.5643ZM533 64.5643H518V451.747H533H548V64.5643H533ZM533 451.747V436.747H15V451.747V466.747H533V451.747ZM15 451.747H30V63.6863H15H0V451.747H15ZM15 63.6863V78.6863H85.2373V63.6863V48.6863H15V63.6863ZM85.2373 63.6863H100.237V18.0321H85.2373H70.2373V63.6863H85.2373ZM85.2373 18.0321V33.0321H86.1152V18.0321V3.03205H85.2373V18.0321ZM86.1152 18.0321L82.589 32.6117L270.909 78.1586L274.436 63.5789L277.962 48.9993L89.6414 3.45241L86.1152 18.0321ZM15.8779 450.747V465.747H273.495V450.747V435.747H15.8779V450.747ZM273.495 450.747L277.021 436.167L88.7635 390.635L85.2373 405.215L81.7111 419.794L269.969 465.327L273.495 450.747ZM85.2373 405.215H100.237V64.5643H85.2373H70.2373V405.215H85.2373ZM85.2373 64.5643V49.5643H15.8779V64.5643V79.5643H85.2373V64.5643ZM15.8779 64.5643H0.87793V450.747H15.8779H30.8779V64.5643H15.8779ZM462.763 405.215L459.221 390.639L271.838 436.171L275.38 450.747L278.922 465.323L466.305 419.791L462.763 405.215ZM275.38 450.747V465.747H532V450.747V435.747H275.38V450.747ZM532 450.747H547V65.5643H532H517V450.747H532ZM532 65.5643V50.5643H462.763V65.5643V80.5643H532V65.5643ZM462.763 65.5643H447.763V405.215H462.763H477.763V65.5643H462.763ZM274.878 64.5008H259.878V449.84H274.878H289.878V64.5008H274.878ZM274.878 449.84L278.42 464.416L465.304 419.004L461.763 404.429L458.221 389.853L271.336 435.264L274.878 449.84ZM461.763 404.429H476.763V19.0906H461.763H446.763V404.429H461.763ZM461.763 19.0906L458.221 4.51477L271.336 49.9249L274.878 64.5008L278.42 79.0767L465.304 33.6665L461.763 19.0906ZM86.1152 404.398L82.589 418.978L270.352 464.39L273.878 449.81L277.404 435.231L89.6414 389.819L86.1152 404.398ZM273.878 449.81H288.878V64.4725H273.878H258.878V449.81H273.878ZM273.878 64.4725L277.404 49.8928L89.6414 4.48073L86.1152 19.0604L82.589 33.64L270.352 79.0521L273.878 64.4725ZM86.1152 19.0604H71.1152V404.398H86.1152H101.115V19.0604H86.1152Z" fill="black"/>
</svg>
