<svg width="1839" height="1839" viewBox="0 0 1839 1839" fill="none" xmlns="http://www.w3.org/2000/svg">
<path d="M1071.37 378.783C1259.77 431.589 1408.11 580.201 1460.53 768.753L1839 920L1460.22 1071.37C1407.52 1259.39 1259.39 1407.52 1071.37 1460.22L920 1839L768.753 1460.53C580.201 1408.11 431.589 1259.77 378.783 1071.37L0 920L378.467 768.753C430.995 579.825 579.825 430.995 768.753 378.467L920 0L1071.37 378.783ZM919.5 451C660.755 451 451 660.755 451 919.5C451 1178.25 660.755 1388 919.5 1388C1178.25 1388 1388 1178.25 1388 919.5C1388 660.755 1178.25 451 919.5 451ZM920 199C900.118 199 884 215.118 884 235C884 254.882 900.118 271 920 271C939.882 271 956 254.882 956 235C956 215.118 939.882 199 920 199Z" fill="black"/>
</svg>
